<svg width="580" height="400" xmlns="http://www.w3.org/2000/svg">
 <!-- Created with SVG Editor - http://github.com/mzalive/SVG Editor/ -->

 <g>
  <title>background</title>
  <rect fill="#fff" id="canvas_background" height="402" width="582" y="-1" x="-1"/>
 </g>
 <g>
  <title>Layer 1</title>
  <g id="svg_24">
   <g transform="matrix(0.2712673404150543,0,0,0.2712673404150543,0,0) " id="svg_6">
    <g id="svg_7">
     <polygon fill="#ffffff" stroke="#ffffff" id="svg_8" points="1166.8690948486328,658.1870727539062 1069.0560913085938,756.0001220703125 971.243091583252,658.1870727539062 941.0560913085938,688.3731079101562 1069.0560913085938,816.3731079101562 1197.0560913085938,688.3731079101562 "/>
    </g>
   </g>
   <g transform="matrix(0.2712673404150543,0,0,0.2712673404150543,0,0) " id="svg_9"/>
   <g transform="matrix(0.2712673404150543,0,0,0.2712673404150543,0,0) " id="svg_10"/>
   <g transform="matrix(0.2712673404150543,0,0,0.2712673404150543,0,0) " id="svg_11"/>
   <g transform="matrix(0.2712673404150543,0,0,0.2712673404150543,0,0) " id="svg_12"/>
   <g transform="matrix(0.2712673404150543,0,0,0.2712673404150543,0,0) " id="svg_13"/>
   <g transform="matrix(0.2712673404150543,0,0,0.2712673404150543,0,0) " id="svg_14"/>
   <g transform="matrix(0.2712673404150543,0,0,0.2712673404150543,0,0) " id="svg_15"/>
   <g transform="matrix(0.2712673404150543,0,0,0.2712673404150543,0,0) " id="svg_16"/>
   <g transform="matrix(0.2712673404150543,0,0,0.2712673404150543,0,0) " id="svg_17"/>
   <g transform="matrix(0.2712673404150543,0,0,0.2712673404150543,0,0) " id="svg_18"/>
   <g transform="matrix(0.2712673404150543,0,0,0.2712673404150543,0,0) " id="svg_19"/>
   <g transform="matrix(0.2712673404150543,0,0,0.2712673404150543,0,0) " id="svg_20"/>
   <g transform="matrix(0.2712673404150543,0,0,0.2712673404150543,0,0) " id="svg_21"/>
   <g transform="matrix(0.2712673404150543,0,0,0.2712673404150543,0,0) " id="svg_22"/>
   <g transform="matrix(0.2712673404150543,0,0,0.2712673404150543,0,0) " id="svg_23"/>
  </g>
 </g>
</svg>